<?xml version="1.0" encoding="UTF-8" standalone="no"?>
<!-- Created with Inkscape (http://www.inkscape.org/) -->

<svg
   width="16"
   height="16"
   viewBox="0 0 16 16.000001"
   version="1.1"
   id="svg857"
   xml:space="preserve"
   inkscape:version="1.2.2 (b0a8486541, 2022-12-01)"
   sodipodi:docname="Contributor.svg"
   xmlns:inkscape="http://www.inkscape.org/namespaces/inkscape"
   xmlns:sodipodi="http://sodipodi.sourceforge.net/DTD/sodipodi-0.dtd"
   xmlns="http://www.w3.org/2000/svg"
   xmlns:svg="http://www.w3.org/2000/svg"><sodipodi:namedview
     id="namedview859"
     pagecolor="#ffffff"
     bordercolor="#666666"
     borderopacity="1.0"
     inkscape:showpageshadow="2"
     inkscape:pageopacity="0.0"
     inkscape:pagecheckerboard="0"
     inkscape:deskcolor="#d1d1d1"
     inkscape:document-units="px"
     showgrid="true"
     inkscape:zoom="26.910888"
     inkscape:cx="9.1784411"
     inkscape:cy="7.4690958"
     inkscape:window-width="1440"
     inkscape:window-height="831"
     inkscape:window-x="0"
     inkscape:window-y="0"
     inkscape:window-maximized="1"
     inkscape:current-layer="layer1"><inkscape:grid
       type="xygrid"
       id="grid987"
       spacingx="1"
       spacingy="1"
       originx="0"
       originy="0" /></sodipodi:namedview><defs
     id="defs854"><symbol
       viewBox="0 0 16 16"
       id="content-beside-text-img-above-center"><path
         fill="#ffffff"
         d="M 1,1 H 15 V 15 H 1 Z"
         id="path13216" /><path
         fill="#999999"
         d="M 14,2 V 14 H 2 V 2 H 14 M 15,1 H 1 v 14 h 14 z"
         id="path13218" /><path
         fill="#5599ff"
         d="m 5,3 h 6 V 9 H 5 Z"
         id="path13220" /><path
         fill="#ffffff"
         d="M 9,8 H 6 L 6.75,7 7.5,6 8.25,7 Z"
         id="path13222" /><path
         fill="#ffffff"
         d="M 10,8 H 7.333 L 8,7.333 8.667,6.667 9.333,7.333 Z"
         id="path13224" /><circle
         cx="9.5"
         cy="5.5"
         r="0.5"
         fill="#ffffff"
         id="circle13226" /><g
         id="g13232"><path
           fill="#b9b9b9"
           d="m 3,12 h 10 v 1 H 3 Z"
           id="path13228" /><path
           fill="#666666"
           d="m 3,10 h 10 v 1 H 3 Z"
           id="path13230" /></g></symbol><symbol
       viewBox="0 0 16 16"
       id="content-beside-text-img-above-right"><path
         fill="#ffffff"
         d="M 1,1 H 15 V 15 H 1 Z"
         id="path13254" /><path
         fill="#999999"
         d="M 14,2 V 14 H 2 V 2 H 14 M 15,1 H 1 v 14 h 14 z"
         id="path13256" /><path
         fill="#5599ff"
         d="m 7,3 h 6 V 9 H 7 Z"
         id="path13258" /><path
         fill="#ffffff"
         d="M 11,8 H 8 L 8.75,7 9.5,6 10.25,7 Z"
         id="path13260" /><path
         fill="#ffffff"
         d="M 12,8 H 9.333 L 10,7.333 10.667,6.667 11.333,7.333 Z"
         id="path13262" /><circle
         cx="11.5"
         cy="5.5"
         r="0.5"
         fill="#ffffff"
         id="circle13264" /><g
         id="g13270"><path
           fill="#b9b9b9"
           d="m 3,12 h 10 v 1 H 3 Z"
           id="path13266" /><path
           fill="#666666"
           d="m 3,10 h 10 v 1 H 3 Z"
           id="path13268" /></g></symbol></defs><g
     inkscape:label="Layer 1"
     inkscape:groupmode="layer"
     id="layer1"><path
       id="path1754"
       style="color:#000000;fill:#999999;stroke-linecap:square;-inkscape-stroke:none;fill-opacity:1"
       d="M 5.1933594 7.9375 L 5.0292969 8.4101562 C 4.6287715 9.5545577 3.8386162 9.7610693 2.8847656 10.376953 C 2.4078404 10.684895 1.9105033 11.101418 1.5585938 11.757812 C 1.2066843 12.414206 1.0033759 13.284424 1 14.498047 L 0.99804688 15 L 7 15 L 8.5 15 L 9 15 L 15.001953 15 L 15 14.498047 C 14.9966 13.284424 14.793316 12.414206 14.441406 11.757812 C 14.089497 11.101418 13.594112 10.684895 13.117188 10.376953 C 12.163336 9.7610693 11.373182 9.5545577 10.972656 8.4101562 L 10.808594 7.9375 L 9.8632812 8.2675781 L 10.029297 8.7402344 C 10.560138 10.256981 11.764138 10.693742 12.574219 11.216797 C 12.979259 11.478324 13.306775 11.757125 13.560547 12.230469 C 13.758229 12.599191 13.842071 13.273908 13.902344 14 L 9 14 L 8.5 14 L 7 14 L 2.0976562 14 C 2.1579293 13.273908 2.2417715 12.599191 2.4394531 12.230469 C 2.6932246 11.757125 3.022694 11.478324 3.4277344 11.216797 C 4.2378152 10.693742 5.4418147 10.256981 5.9726562 8.7402344 L 6.1367188 8.2675781 L 5.1933594 7.9375 z " /><path
       style="color:#000000;fill:#666666;stroke-linecap:square;-inkscape-stroke:none;paint-order:fill markers stroke;fill-opacity:1"
       d="M 8,1 C 5.7581827,1 4,3.0544209 4,5.5 4,7.9455791 5.7581827,10 8,10 10.241817,10 12,7.9455791 12,5.5 12,3.0544209 10.241817,1 8,1 Z M 8,2 C 9.6241721,2 11,3.5273055 11,5.5 11,7.4726945 9.6241721,9 8,9 6.3758279,9 5,7.4726945 5,5.5 5,3.5273055 6.3758279,2 8,2 Z"
       id="path1870" /></g></svg>
