<?xml version="1.0" encoding="UTF-8" standalone="no"?>
<svg
   viewBox="0 0 64 64"
   version="1.1"
   id="svg334"
   sodipodi:docname="Extension.svg"
   inkscape:version="1.3 (0e150ed6c4, 2023-07-21)"
   xml:space="preserve"
   inkscape:export-filename="Extension.png"
   inkscape:export-xdpi="1500"
   inkscape:export-ydpi="1500"
   xmlns:inkscape="http://www.inkscape.org/namespaces/inkscape"
   xmlns:sodipodi="http://sodipodi.sourceforge.net/DTD/sodipodi-0.dtd"
   xmlns:xlink="http://www.w3.org/1999/xlink"
   xmlns="http://www.w3.org/2000/svg"
   xmlns:svg="http://www.w3.org/2000/svg"><defs
     id="defs338"><linearGradient
       inkscape:collect="always"
       id="linearGradient1200"><stop
         style="stop-color:#ca1428;stop-opacity:1;"
         offset="0"
         id="stop1198" /><stop
         style="stop-color:#9b1526;stop-opacity:1;"
         offset="1"
         id="stop1196" /></linearGradient><radialGradient
       inkscape:collect="always"
       xlink:href="#linearGradient1200"
       id="radialGradient1"
       cx="21.456154"
       cy="78.368561"
       fx="21.456154"
       fy="78.368561"
       r="32"
       gradientUnits="userSpaceOnUse"
       gradientTransform="matrix(0,-1.732455,1.6108918,1.1567074e-6,-94.133103,92.61029)" /></defs><sodipodi:namedview
     id="namedview336"
     pagecolor="#ffffff"
     bordercolor="#666666"
     borderopacity="1.0"
     inkscape:showpageshadow="2"
     inkscape:pageopacity="0.0"
     inkscape:pagecheckerboard="0"
     inkscape:deskcolor="#d1d1d1"
     showgrid="false"
     showguides="true"
     inkscape:zoom="5.2149127"
     inkscape:cx="41.707314"
     inkscape:cy="36.146339"
     inkscape:window-width="1440"
     inkscape:window-height="831"
     inkscape:window-x="0"
     inkscape:window-y="0"
     inkscape:window-maximized="1"
     inkscape:current-layer="svg334" /><path
     fill="#FF8700"
     d="M0 0h64v64H0z"
     id="path330"
     style="fill:url(#radialGradient1);fill-opacity:1" /><path
     id="path364"
     style="color:#000000;fill:#ffffff;stroke-linecap:round;stroke-linejoin:round;-inkscape-stroke:none"
     d="M 22.818359 10.623047 C 21.713794 10.623047 20.818359 11.518482 20.818359 12.623047 C 20.818359 13.727612 21.713794 14.623047 22.818359 14.623047 L 33.060547 14.623047 L 35.060547 14.623047 L 40.445312 14.623047 C 43.056674 14.623047 45.097656 16.662077 45.097656 19.273438 L 45.097656 22.783203 L 45.097656 24.783203 L 45.097656 45.427734 C 45.097656 46.532299 45.993091 47.427734 47.097656 47.427734 C 48.202221 47.427734 49.097656 46.532299 49.097656 45.427734 L 49.097656 24.783203 L 49.097656 22.783203 L 49.097656 19.273438 C 49.097656 14.515276 45.203475 10.623047 40.445312 10.623047 L 35.060547 10.623047 L 33.060547 10.623047 L 22.818359 10.623047 z M 17.902344 16.572266 C 16.244797 16.572431 14.901431 17.916673 14.902344 19.574219 L 14.933594 50.380859 C 14.935437 50.382919 14.937604 50.384664 14.939453 50.386719 A 2.9587624 2.9646173 0 0 0 14.935547 50.4375 A 2.9587624 2.9646173 0 0 0 17.894531 53.402344 A 2.9587624 2.9646173 0 0 0 19.433594 52.964844 C 19.442698 52.963425 19.452001 52.962441 19.460938 52.960938 L 29.125 47.261719 L 38.642578 52.951172 C 40.6423 54.147915 43.181431 52.707421 43.181641 50.376953 L 43.181641 19.572266 C 43.181475 17.915482 41.838423 16.572432 40.181641 16.572266 L 17.902344 16.572266 z M 20.908203 22.572266 L 37.181641 22.572266 L 37.181641 45.087891 L 30.675781 41.197266 C 29.732752 40.633861 28.557213 40.630858 27.611328 41.189453 L 20.929688 45.128906 L 20.908203 22.572266 z " /></svg>
