<?xml version="1.0" encoding="UTF-8" standalone="no"?>
<svg
   viewBox="0 0 64 64"
   version="1.1"
   id="svg334"
   sodipodi:docname="Extension.svg"
   inkscape:version="1.2.2 (b0a8486541, 2022-12-01)"
   xml:space="preserve"
   inkscape:export-filename="Extension.png"
   inkscape:export-xdpi="1500"
   inkscape:export-ydpi="1500"
   xmlns:inkscape="http://www.inkscape.org/namespaces/inkscape"
   xmlns:sodipodi="http://sodipodi.sourceforge.net/DTD/sodipodi-0.dtd"
   xmlns:xlink="http://www.w3.org/1999/xlink"
   xmlns="http://www.w3.org/2000/svg"
   xmlns:svg="http://www.w3.org/2000/svg"><defs
     id="defs338"><linearGradient
       inkscape:collect="always"
       id="linearGradient1200"><stop
         style="stop-color:#9b1526;stop-opacity:1;"
         offset="0"
         id="stop1196" /><stop
         style="stop-color:#ca1428;stop-opacity:1;"
         offset="1"
         id="stop1198" /></linearGradient><linearGradient
       inkscape:collect="always"
       xlink:href="#linearGradient1200"
       id="linearGradient1202"
       x1="0"
       y1="64"
       x2="64"
       y2="0"
       gradientUnits="userSpaceOnUse" /></defs><sodipodi:namedview
     id="namedview336"
     pagecolor="#ffffff"
     bordercolor="#666666"
     borderopacity="1.0"
     inkscape:showpageshadow="2"
     inkscape:pageopacity="0.0"
     inkscape:pagecheckerboard="0"
     inkscape:deskcolor="#d1d1d1"
     showgrid="false"
     showguides="true"
     inkscape:zoom="3.6875001"
     inkscape:cx="-10.305085"
     inkscape:cy="53.694914"
     inkscape:window-width="1440"
     inkscape:window-height="831"
     inkscape:window-x="0"
     inkscape:window-y="0"
     inkscape:window-maximized="1"
     inkscape:current-layer="svg334" /><path
     fill="#FF8700"
     d="M0 0h64v64H0z"
     id="path330"
     style="fill:url(#linearGradient1202);fill-opacity:1" /><path
     id="path364"
     style="color:#000000;fill:#ffffff;stroke-linecap:round;stroke-linejoin:round;-inkscape-stroke:none"
     d="M 22.818359 10.623047 C 21.713793 10.623047 20.818359 11.518481 20.818359 12.623047 C 20.818359 13.727613 21.713793 14.623047 22.818359 14.623047 L 33.060547 14.623047 L 35.060547 14.623047 L 40.445312 14.623047 C 43.056676 14.623047 45.097656 16.662075 45.097656 19.273438 L 45.097656 22.783203 L 45.097656 24.783203 L 45.097656 45.427734 C 45.097656 46.5323 45.99309 47.427734 47.097656 47.427734 C 48.202222 47.427734 49.097656 46.5323 49.097656 45.427734 L 49.097656 24.783203 L 49.097656 22.783203 L 49.097656 19.273438 C 49.097656 14.515272 45.203479 10.623047 40.445312 10.623047 L 35.060547 10.623047 L 33.060547 10.623047 L 22.818359 10.623047 z M 17.902344 16.572266 C 16.244796 16.572431 14.901431 17.916672 14.902344 19.574219 L 14.933594 50.380859 C 15.007344 50.463239 15.085585 50.541488 15.167969 50.615234 C 15.134009 51.051741 15.197962 51.490393 15.351562 51.900391 C 15.898607 52.696797 16.793788 53.180987 17.759766 53.201172 C 17.816546 53.262212 17.877791 53.320854 17.939453 53.376953 C 18.432551 53.361463 18.912268 53.224613 19.339844 52.978516 C 19.379674 52.973416 19.421347 52.967597 19.460938 52.960938 L 29.125 47.261719 L 38.642578 52.951172 C 40.642302 54.147916 43.181431 52.707423 43.181641 50.376953 L 43.181641 19.572266 C 43.181475 17.915481 41.838425 16.572432 40.181641 16.572266 L 17.902344 16.572266 z M 20.908203 22.572266 L 37.181641 22.572266 L 37.181641 45.087891 L 30.675781 41.197266 C 29.732751 40.633861 28.557214 40.630857 27.611328 41.189453 L 20.929688 45.128906 L 20.908203 22.572266 z " /></svg>
