<?xml version="1.0" encoding="UTF-8" standalone="no"?>
<!-- Created with Inkscape (http://www.inkscape.org/) -->

<svg
   width="16"
   height="16"
   viewBox="0 0 16 16.000001"
   version="1.1"
   id="svg857"
   xml:space="preserve"
   inkscape:version="1.2.2 (b0a8486541, 2022-12-01)"
   sodipodi:docname="Tag.svg"
   xmlns:inkscape="http://www.inkscape.org/namespaces/inkscape"
   xmlns:sodipodi="http://sodipodi.sourceforge.net/DTD/sodipodi-0.dtd"
   xmlns="http://www.w3.org/2000/svg"
   xmlns:svg="http://www.w3.org/2000/svg"><sodipodi:namedview
     id="namedview859"
     pagecolor="#ffffff"
     bordercolor="#666666"
     borderopacity="1.0"
     inkscape:showpageshadow="2"
     inkscape:pageopacity="0.0"
     inkscape:pagecheckerboard="0"
     inkscape:deskcolor="#d1d1d1"
     inkscape:document-units="px"
     showgrid="true"
     inkscape:zoom="13.455444"
     inkscape:cx="8.2494494"
     inkscape:cy="7.3204573"
     inkscape:window-width="1712"
     inkscape:window-height="926"
     inkscape:window-x="0"
     inkscape:window-y="0"
     inkscape:window-maximized="1"
     inkscape:current-layer="layer1"><inkscape:grid
       type="xygrid"
       id="grid987"
       spacingx="1"
       spacingy="1"
       originx="0"
       originy="0" /></sodipodi:namedview><defs
     id="defs854"><symbol
       viewBox="0 0 16 16"
       id="content-beside-text-img-above-center"><path
         fill="#ffffff"
         d="M 1,1 H 15 V 15 H 1 Z"
         id="path13216" /><path
         fill="#999999"
         d="M 14,2 V 14 H 2 V 2 H 14 M 15,1 H 1 v 14 h 14 z"
         id="path13218" /><path
         fill="#5599ff"
         d="m 5,3 h 6 V 9 H 5 Z"
         id="path13220" /><path
         fill="#ffffff"
         d="M 9,8 H 6 L 6.75,7 7.5,6 8.25,7 Z"
         id="path13222" /><path
         fill="#ffffff"
         d="M 10,8 H 7.333 L 8,7.333 8.667,6.667 9.333,7.333 Z"
         id="path13224" /><circle
         cx="9.5"
         cy="5.5"
         r="0.5"
         fill="#ffffff"
         id="circle13226" /><g
         id="g13232"><path
           fill="#b9b9b9"
           d="m 3,12 h 10 v 1 H 3 Z"
           id="path13228" /><path
           fill="#666666"
           d="m 3,10 h 10 v 1 H 3 Z"
           id="path13230" /></g></symbol><symbol
       viewBox="0 0 16 16"
       id="content-beside-text-img-above-right"><path
         fill="#ffffff"
         d="M 1,1 H 15 V 15 H 1 Z"
         id="path13254" /><path
         fill="#999999"
         d="M 14,2 V 14 H 2 V 2 H 14 M 15,1 H 1 v 14 h 14 z"
         id="path13256" /><path
         fill="#5599ff"
         d="m 7,3 h 6 V 9 H 7 Z"
         id="path13258" /><path
         fill="#ffffff"
         d="M 11,8 H 8 L 8.75,7 9.5,6 10.25,7 Z"
         id="path13260" /><path
         fill="#ffffff"
         d="M 12,8 H 9.333 L 10,7.333 10.667,6.667 11.333,7.333 Z"
         id="path13262" /><circle
         cx="11.5"
         cy="5.5"
         r="0.5"
         fill="#ffffff"
         id="circle13264" /><g
         id="g13270"><path
           fill="#b9b9b9"
           d="m 3,12 h 10 v 1 H 3 Z"
           id="path13266" /><path
           fill="#666666"
           d="m 3,10 h 10 v 1 H 3 Z"
           id="path13268" /></g></symbol></defs><g
     inkscape:label="Layer 1"
     inkscape:groupmode="layer"
     id="layer1"><path
       style="color:#000000;fill:#999999;stroke-linecap:square;-inkscape-stroke:none;fill-opacity:1"
       d="M 9.5,0.79296875 1,9.2929688 V 15 H 1.5 6.7070312 L 15.207031,6.5 Z M 9.5,2.2070313 13.792969,6.5 6.2929687,14 H 2 V 9.7070313 Z"
       id="path370" /><path
       style="color:#000000;fill:#b9b9b9;fill-opacity:1;stroke-linecap:square;-inkscape-stroke:none;paint-order:fill markers stroke"
       d="M 4.5,10 C 3.677496,10 3,10.677496 3,11.5 3,12.322504 3.677496,13 4.5,13 5.322504,13 6,12.322504 6,11.5 6,10.677496 5.322504,10 4.5,10 Z m 0,1 C 4.7820644,11 5,11.217936 5,11.5 5,11.782064 4.7820644,12 4.5,12 4.2179356,12 4,11.782064 4,11.5 4,11.217936 4.2179356,11 4.5,11 Z"
       id="path978" /><path
       style="color:#000000;fill:#666666;-inkscape-stroke:none;fill-opacity:1"
       d="m 10.646484,5.6464844 -3.9999996,4 0.7070312,0.7070316 4.0000004,-4.0000004 z"
       id="path1813" /><path
       style="color:#000000;fill:#666666;-inkscape-stroke:none;fill-opacity:1"
       d="m 9.6464844,4.6464844 -4,4 0.7070312,0.7070312 4.0000004,-4 z"
       id="path1815" /></g></svg>
